<?xml version="1.0" encoding="UTF-8" standalone="no"?>
<svg
   xmlns:dc="http://purl.org/dc/elements/1.1/"
   xmlns:cc="http://creativecommons.org/ns#"
   xmlns:rdf="http://www.w3.org/1999/02/22-rdf-syntax-ns#"
   xmlns:svg="http://www.w3.org/2000/svg"
   xmlns="http://www.w3.org/2000/svg"
   xmlns:sodipodi="http://sodipodi.sourceforge.net/DTD/sodipodi-0.dtd"
   xmlns:inkscape="http://www.inkscape.org/namespaces/inkscape"
   version="1.1"
   x="0px"
   y="0px"
   viewBox="0 0 100 125"
   enable-background="new 0 0 100 100"
   xml:space="preserve"
   id="svg4604"
   inkscape:version="0.91 r13725"
   sodipodi:docname="cute-horseradish.svg"><metadata
     id="metadata4618"><rdf:RDF><cc:Work
         rdf:about=""><dc:format>image/svg+xml</dc:format><dc:type
           rdf:resource="http://purl.org/dc/dcmitype/StillImage" /><dc:title></dc:title></cc:Work></rdf:RDF></metadata><defs
     id="defs4616" /><sodipodi:namedview
     pagecolor="#ffffff"
     bordercolor="#666666"
     borderopacity="1"
     objecttolerance="10"
     gridtolerance="10"
     guidetolerance="10"
     inkscape:pageopacity="0"
     inkscape:pageshadow="2"
     inkscape:window-width="1446"
     inkscape:window-height="860"
     id="namedview4614"
     showgrid="false"
     inkscape:zoom="5.192"
     inkscape:cx="50"
     inkscape:cy="62.5"
     inkscape:window-x="0"
     inkscape:window-y="0"
     inkscape:window-maximized="0"
     inkscape:current-layer="svg4604" /><path
     inkscape:connector-curvature="0"
     id="path4608"
     d="m 85.714,26.649 c -1.618,-0.643 -3.306,-0.837 -5.005,-0.721 3.053,-5.157 4.168,-11.581 -0.233,-15.395 -3.992,-3.459 -10.221,-1.432 -13.83,1.48 -1.07,0.863 -1.953,1.912 -2.694,3.074 C 63.097,11.887 61.535,8.895 58.87,7.008 55.31,4.487 48.688,4.215 45.51,7.652 41.032,12.495 48.421,17.746 52.658,22.291 38.349,20.882 26.497,33.037 19.688,44.568 11.097,59.117 6.417,76.396 3.923,93.002 c -0.153,1.021 0.252,1.849 0.881,2.4 -0.658,1.753 0.628,4.138 2.861,3.342 11.402,-4.066 21.298,-11.823 32.054,-17.338 10.066,-5.162 20.849,-10.307 28.522,-18.871 5.229,-5.836 6.741,-13.584 5.291,-20.727 2.427,2.221 4.875,4.414 7.786,5.87 5.49,2.745 11.467,-1.833 12.611,-7.13 1.335,-6.187 -2.663,-11.693 -8.215,-13.899 z M 49.894,11.867 c -0.569,-0.873 -0.563,-0.955 -0.364,-1.076 1.429,-0.864 4.05,-0.909 5.534,-0.276 3.869,1.649 4.701,7.517 4.768,11.151 0.018,0.976 0.493,1.652 1.141,2.037 -0.049,0.313 -0.09,0.626 -0.13,0.938 C 60.52,24.479 60.195,24.318 59.862,24.171 58.377,19.297 52.573,15.98 49.894,11.867 Z M 62.655,61.116 C 60.729,55.68 57,51.365 51.595,48.841 c -2.902,-1.355 -5.443,2.954 -2.524,4.317 5.074,2.369 8.115,6.241 9.455,11.622 -6.818,5.356 -15.103,9.113 -22.695,13.007 -0.577,0.296 -1.151,0.601 -1.723,0.911 -0.007,-0.12 -0.007,-0.238 -0.031,-0.363 -0.838,-4.549 -3.076,-8.78 -6.643,-11.77 -2.453,-2.056 -6.009,1.462 -3.536,3.536 2.988,2.505 4.656,5.757 5.357,9.564 0.115,0.624 0.398,1.067 0.767,1.361 -6.932,4.112 -13.674,8.77 -21.041,11.859 0.598,-3.775 1.325,-7.543 2.179,-11.288 2.44,0.572 4.892,1.429 6.737,3.171 2.342,2.211 5.884,-1.318 3.536,-3.536 -2.515,-2.374 -5.755,-3.701 -9.085,-4.483 2.024,-7.733 4.627,-15.317 7.955,-22.542 0.307,-0.667 0.628,-1.341 0.958,-2.016 3.843,0.206 6.892,2.337 9.304,5.243 2.061,2.483 5.579,-1.074 3.536,-3.536 -2.722,-3.279 -6.274,-5.604 -10.36,-6.418 5.723,-10.063 14.126,-19.494 26.18,-20.076 3.97,-0.192 7.601,0.836 10.626,2.801 0.23,1.249 1.316,1.875 2.415,1.878 0.782,0.729 1.496,1.542 2.151,2.415 -0.223,1.121 0.589,2.258 1.696,2.704 0.34,0.654 0.659,1.325 0.934,2.03 3.104,7.96 0.611,16.012 -5.088,21.884 z m 7.238,-30.925 c -0.433,0.29 -0.853,0.586 -1.264,0.885 -0.914,-1.172 -1.936,-2.261 -3.059,-3.246 0.21,-3.528 0.941,-6.987 2.746,-10.086 1.413,-2.425 6.255,-5.729 9.005,-3.347 1.817,1.574 0.588,5.288 -0.044,7.101 -1.068,3.063 -3.304,5.88 -6.206,7.342 -0.661,0.334 -1.026,0.821 -1.178,1.351 z M 88.176,41.69 c -2.938,4.979 -11.048,-2.838 -15.816,-7.188 3.258,-2.247 7.103,-3.938 11.002,-3.31 4.788,0.77 7.181,6.487 4.814,10.498 z" /></svg>