<?xml version="1.0" encoding="UTF-8"?>
<svg width="144px" height="144px" viewBox="0 0 144 144" version="1.1" xmlns="http://www.w3.org/2000/svg" xmlns:xlink="http://www.w3.org/1999/xlink">
    <!-- Generator: Sketch 52.5 (67469) - http://www.bohemiancoding.com/sketch -->
    <title>siggu</title>
    <desc>Created with Sketch.</desc>
    <defs>
        <path d="M0.758001545,24 C4.75800154,6 14.7580015,1.7710059e-14 32.7580015,1.42108547e-14 C50.7580015,1.42108547e-14 60.7580015,6 64.7580015,24 C68.7580015,42 56.7580015,104 32.7580015,104 C8.75800154,104 -3.24199846,42 0.758001545,24 Z" id="path-1"></path>
        <linearGradient x1="50.0019207%" y1="109.500826%" x2="50%" y2="0%" id="linearGradient-3">
            <stop stop-color="#FFBBB3" offset="0%"></stop>
            <stop stop-color="#FF6453" offset="61.7864884%"></stop>
            <stop stop-color="#FF978C" offset="100%"></stop>
        </linearGradient>
    </defs>
    <g id="siggu" stroke="none" stroke-width="1" fill="none" fill-rule="evenodd">
        <g id="Group-5" transform="translate(39.000000, 10.000000)">
            <path d="M29.6643995,13.388539 L28.0709952,15.561293 L26.4525905,13.4070964 C23.8167454,9.89862363 21.1192843,7.99516389 20.0628274,8.46552881 C17.9857124,9.39032002 19.2446016,19.5478942 21.6305484,22.7937783 C23.129376,24.8328097 24.3179821,25.1180447 26.7330361,24.1016477 L27.9159826,23.6037941 L28.8614167,24.471766 C29.4482516,25.0105197 30.1760612,25.5507371 31.0604084,26.1033385 C35.1659625,28.6687735 37.6392689,28.5065678 40.7699333,25.3133433 C42.5536534,23.4939791 45.126712,18.1330161 46.464249,13.1102724 C47.9512998,7.52607161 47.6785917,3.47053666 45.8981478,2.35799185 C42.9516969,0.516844984 34.9898825,6.12675031 29.6643995,13.388539 Z" id="Combined-Shape" stroke="#1ECD4A" stroke-width="4" fill="#72FF95" fill-rule="nonzero"></path>
            <g id="Group-2" transform="translate(0.000000, 21.000000)">
                <mask id="mask-2" fill="white">
                    <use xlink:href="#path-1"></use>
                </mask>
                <g id="Mask" fill-rule="nonzero"></g>
                <path d="M2.71037567,24.4338609 C0.716666042,33.4055542 2.95610754,53.3365836 8.16839228,70.1580479 C14.2751777,89.86631 23.110993,102 32.7580015,102 C42.4050101,102 51.2408254,89.86631 57.3476108,70.1580479 C62.5598955,53.3365836 64.799337,33.4055542 62.8056274,24.4338609 C59.1706898,8.07664182 50.6633913,2 32.7580015,2 C14.8526118,2 6.34531324,8.07664182 2.71037567,24.4338609 Z" id="Mask" stroke="#FF4D3A" stroke-width="4" fill="url(#linearGradient-3)" fill-rule="nonzero" mask="url(#mask-2)"></path>
                <g id="Group-4" mask="url(#mask-2)" fill="#76332E" fill-rule="nonzero" opacity="0.943894159">
                    <g transform="translate(13.000000, 24.000000)">
                        <path d="M10.0002149,12.0000053 L29.7060476,12 C30.81062,12 31.7060529,12.8954329 31.7060529,14.0000053 C31.7060529,14.085533 31.7005667,14.1709727 31.689628,14.2557981 C30.8519179,20.7519362 26.90642,24.0000053 19.8531343,24.0000053 C12.799846,24.0000053 8.85434782,20.7519339 8.01663964,14.2557912 L8.01664507,14.2557905 C7.87537579,13.1602951 8.64892887,12.1576993 9.74442423,12.01643 C9.82924889,12.0054914 9.91468786,12.0000053 10.0002149,12.0000053 Z" id="Rectangle"></path>
                        <circle id="Oval" cx="2" cy="2" r="2"></circle>
                        <circle id="Oval" cx="38" cy="2" r="2"></circle>
                    </g>
                </g>
                <g id="Group" mask="url(#mask-2)">
                    <g transform="translate(13.000000, 28.000000)"></g>
                </g>
                <path d="M39.5,83 L45.8338446,83 C45.94453,83 46.0551307,82.9938744 46.1651392,82.9816512 L52.5152907,82.2760788 C53.7435284,82.139608 54.8498433,83.0246599 54.9863142,84.2528976 C54.9954311,84.3349496 55,84.4174431 55,84.5 L55,84.5 C55,85.9232538 53.9298395,87.1189067 52.5152907,87.2760788 L46.1651392,87.9816512 C46.0551307,87.9938744 45.94453,88 45.8338446,88 L39.5,88 C38.1192881,88 37,86.8807119 37,85.5 L37,85.5 C37,84.1192881 38.1192881,83 39.5,83 Z" id="Rectangle" fill="#FF4D3A" fill-rule="nonzero" mask="url(#mask-2)"></path>
                <path d="M9.5,71 L16.8503731,71 C16.9500624,71 17.0496897,70.995031 17.1488843,70.9851116 L24.512407,70.2487593 C25.7557329,70.1244267 26.8644392,71.03155 26.9887718,72.2748759 C26.9962526,72.3496841 27,72.4248187 27,72.5 L27,72.5 C27,73.9192224 25.9245861,75.1075414 24.512407,75.2487593 L17.1488843,75.9851116 C17.0496897,75.995031 16.9500624,76 16.8503731,76 L9.5,76 C8.11928813,76 7,74.8807119 7,73.5 L7,73.5 C7,72.1192881 8.11928813,71 9.5,71 Z" id="Rectangle" fill="#FF4D3A" fill-rule="nonzero" mask="url(#mask-2)"></path>
                <path d="M43.5,59 L50.8503731,59 C50.9500624,59 51.0496897,58.995031 51.1488843,58.9851116 L58.512407,58.2487593 C59.7557329,58.1244267 60.8644392,59.03155 60.9887718,60.2748759 C60.9962526,60.3496841 61,60.4248187 61,60.5 L61,60.5 C61,61.9192224 59.9245861,63.1075414 58.512407,63.2487593 L51.1488843,63.9851116 C51.0496897,63.995031 50.9500624,64 50.8503731,64 L43.5,64 C42.1192881,64 41,62.8807119 41,61.5 L41,61.5 C41,60.1192881 42.1192881,59 43.5,59 Z" id="Rectangle-2" fill="#FF4D3A" fill-rule="nonzero" mask="url(#mask-2)"></path>
            </g>
        </g>
    </g>
</svg>